<?xml version="1.0" encoding="utf-8"?>
<!-- Generator: Adobe Illustrator 16.0.0, SVG Export Plug-In . SVG Version: 6.00 Build 0)  -->
<!DOCTYPE svg PUBLIC "-//W3C//DTD SVG 1.1//EN" "http://www.w3.org/Graphics/SVG/1.1/DTD/svg11.dtd">
<svg version="1.1" id="Layer_1" xmlns="http://www.w3.org/2000/svg" xmlns:xlink="http://www.w3.org/1999/xlink" x="0px" y="0px"
	 width="51px" height="51px" viewBox="280.5 370.5 51 51" enable-background="new 280.5 370.5 51 51" xml:space="preserve">
<path d="M306,371.2c-13.679,0-24.905,11.179-24.905,24.801c0,11.625,8.191,22.183,19.068,24.8v-8.205
	c-1.078,0.234-2.07,0.242-3.167-0.081c-1.472-0.431-2.669-1.408-3.556-2.896c-0.565-0.951-1.569-1.982-2.615-1.907l-0.257-2.895
	c2.263-0.192,4.22,1.373,5.382,3.315c0.515,0.866,1.109,1.373,1.872,1.596c0.738,0.217,1.528,0.111,2.45-0.211
	c0.231-1.84,1.077-2.527,1.716-3.496v-0.002c-6.487-0.963-9.072-4.391-10.099-7.096c-1.36-3.59-0.629-8.078,1.774-10.913
	c0.046-0.055,0.131-0.2,0.099-0.301c-1.103-3.316,0.241-6.06,0.291-6.35c1.271,0.375,1.479-0.378,5.526,2.072l0.7,0.417
	c0.292,0.174,0.2,0.075,0.494,0.053c1.689-0.457,3.472-0.709,5.226-0.732c1.769,0.023,3.538,0.275,5.3,0.751l0.227,0.022
	c-0.021-0.003,0.061-0.014,0.197-0.095c5.057-3.05,4.874-2.053,6.23-2.492c0.048,0.292,1.374,3.08,0.283,6.354
	c-0.146,0.451,4.385,4.582,1.873,11.214c-1.026,2.705-3.611,6.133-10.099,7.096v0.002c0.831,1.263,1.831,1.935,1.825,4.537v10.242
	c10.877-2.617,19.068-13.176,19.068-24.8C330.905,382.379,319.68,371.2,306,371.2z"/>
</svg>
