<?xml version="1.0" standalone="no"?>
<!DOCTYPE svg PUBLIC "-//W3C//DTD SVG 20010904//EN"
 "http://www.w3.org/TR/2001/REC-SVG-20010904/DTD/svg10.dtd">
<svg version="1.0" xmlns="http://www.w3.org/2000/svg"
 width="512.000000pt" height="512.000000pt" viewBox="0 0 512.000000 512.000000"
 preserveAspectRatio="xMidYMid meet">
<metadata>
Created by potrace 1.11, written by Peter Selinger 2001-2013
</metadata>
<g transform="translate(0.000000,512.000000) scale(0.100000,-0.100000)"
fill="#000000" stroke="none">
<path d="M0 2560 l0 -2560 2560 0 2560 0 0 2560 0 2560 -2560 0 -2560 0 0
-2560z m1968 1970 c18 -11 35 -26 38 -34 3 -7 27 -28 54 -45 27 -18 72 -58
100 -89 45 -50 49 -57 31 -60 -38 -6 -15 -62 25 -62 29 0 42 24 24 45 -11 13
-8 15 18 15 25 0 32 -6 41 -31 14 -40 14 -89 1 -89 -15 0 -12 -26 4 -39 16
-14 61 4 85 33 18 21 28 20 35 -2 4 -11 17 -25 31 -32 20 -11 28 -10 50 4 30
20 32 42 5 51 -28 9 -15 25 20 25 34 0 50 -23 50 -72 0 -25 -3 -29 -10 -18 -8
12 -10 10 -10 -9 0 -19 -4 -22 -22 -18 -11 3 -34 -1 -50 -9 -17 -9 -31 -14
-31 -12 -29 59 -49 68 -94 43 -40 -22 -42 -26 -66 -100 -16 -47 -16 -51 1 -63
16 -13 16 -14 -3 -10 -14 2 -25 18 -37 53 -11 36 -22 51 -37 53 -15 3 -25 17
-36 54 -8 28 -22 63 -31 76 -10 15 -16 44 -15 72 0 33 -5 52 -17 63 -17 15
-83 47 -98 47 -12 0 4 -95 22 -133 10 -22 25 -37 35 -37 10 0 24 -7 32 -15 17
-16 61 -154 53 -163 -3 -3 -6 1 -6 9 -1 10 -3 9 -11 -3 -5 -10 -18 -18 -28
-18 -10 0 -35 -7 -54 -15 -29 -12 -37 -22 -43 -50 -10 -53 -2 -64 43 -58 33 4
48 -1 96 -31 41 -26 57 -43 57 -58 0 -17 -3 -19 -12 -10 -18 18 -137 16 -144
-3 -8 -19 -29 -19 -59 1 -26 17 -45 12 -45 -11 0 -8 -8 -19 -19 -24 -36 -19
-74 45 -55 93 8 22 23 11 17 -13 -8 -29 24 -34 43 -6 22 33 15 60 -16 60 -14
0 -31 4 -38 8 -17 12 3 47 28 47 26 0 34 17 13 28 -10 5 -42 15 -71 22 -51 12
-53 12 -73 -14 -24 -31 -36 -26 -55 21 -18 43 -11 69 26 88 29 15 58 14 87 -5
14 -9 8 -10 -28 -5 -49 6 -74 -8 -67 -41 2 -13 18 -17 77 -20 62 -3 79 0 103
18 25 17 34 19 54 9 54 -24 94 -8 94 38 0 34 -13 53 -31 46 -11 -4 -20 9 -33
52 -27 86 -81 187 -108 201 -31 17 -57 54 -64 91 -5 23 -1 35 19 55 31 31 61
33 105 6z m1989 -4 c74 -13 103 -28 103 -52 0 -15 -31 -34 -56 -34 -14 0 -14
2 -3 16 21 26 -7 34 -111 32 -73 -1 -81 -3 -32 -5 34 -2 62 -8 62 -12 0 -10
-61 -21 -120 -21 -43 1 -44 1 -25 16 19 15 18 16 -14 9 -42 -9 -138 -65 -170
-99 -14 -14 -31 -26 -38 -26 -8 0 -11 -5 -7 -12 4 -7 3 -8 -5 -4 -17 11 -64
-22 -57 -40 7 -19 -28 -19 -43 0 -14 16 -4 43 23 66 13 10 16 10 16 -4 0 -13
5 -16 23 -11 63 19 93 62 35 51 l-33 -6 31 19 c18 11 69 32 115 48 l84 28 -88
3 c-53 2 -85 7 -82 12 10 17 -26 11 -181 -28 -107 -27 -167 -47 -209 -72 -83
-50 -223 -193 -342 -350 -155 -207 -160 -213 -215 -250 -28 -19 -53 -42 -56
-50 -2 -10 -1 -11 5 -4 12 17 73 46 73 35 0 -15 -64 -90 -75 -87 -5 2 -9 12
-7 22 2 16 0 15 -17 -5 -20 -27 -18 -51 6 -51 8 0 12 -4 8 -10 -3 -6 -15 -5
-31 2 l-26 12 8 95 c5 53 7 134 6 181 l-2 85 20 -23 c11 -13 22 -40 25 -60 11
-66 14 -70 36 -43 l19 23 0 -44 c0 -25 -3 -47 -6 -51 -4 -3 -21 0 -39 7 -33
14 -33 14 -39 -16 -9 -46 -7 -88 4 -88 5 0 18 17 29 39 11 21 29 41 40 44 10
2 30 20 43 40 44 66 226 302 292 380 71 82 191 184 258 218 23 12 106 38 187
59 l146 39 180 -5 c99 -2 212 -10 252 -18z m-410 -42 c-3 -3 -12 -4 -19 -1 -8
3 -5 6 6 6 11 1 17 -2 13 -5z m163 -189 c17 -18 20 -28 12 -41 -9 -16 -10 -15
-16 4 -13 39 -104 25 -130 -20 -10 -16 -32 -38 -50 -49 l-31 -19 33 6 c18 4
32 2 32 -3 0 -23 -94 -87 -116 -79 -20 8 -18 43 4 55 9 6 12 11 6 11 -25 0
-47 -28 -49 -66 -2 -34 -7 -41 -38 -57 -33 -16 -56 -51 -44 -63 3 -3 24 0 47
6 33 9 45 18 53 41 8 20 18 29 34 29 13 0 26 1 30 3 17 5 14 -38 -3 -50 -25
-18 -10 -28 39 -26 277 7 324 5 378 -10 55 -16 206 -91 262 -130 39 -27 46
-13 12 24 -55 56 -138 101 -245 131 -19 5 -96 13 -170 17 l-135 8 121 1 c136
2 234 -17 339 -67 107 -50 205 -142 205 -193 0 -23 -35 -58 -57 -57 -14 0 -14
2 4 9 22 9 39 43 28 60 -3 5 -16 10 -28 10 -19 -1 -20 -2 -5 -11 10 -5 15 -16
12 -24 -9 -21 -41 -18 -54 4 -14 27 -13 31 8 32 9 0 -3 9 -28 19 -36 15 -69
19 -160 18 -78 0 -104 -3 -82 -8 42 -10 50 -18 26 -26 -61 -19 -78 -31 -100
-65 l-24 -38 -77 1 c-56 1 -87 -3 -111 -16 -36 -19 -52 -14 -52 14 0 13 9 22
25 26 14 4 24 8 21 11 -2 2 -22 -1 -45 -8 -28 -8 -41 -18 -43 -33 -2 -11 -16
-27 -31 -34 -16 -8 -33 -27 -39 -43 -8 -24 -15 -29 -43 -29 -27 0 -162 -46
-198 -67 -20 -12 18 -31 71 -35 86 -8 336 -102 479 -179 126 -69 265 -175 333
-253 54 -62 100 -142 100 -171 0 -34 -15 -55 -39 -55 -13 1 -13 2 2 11 20 11
23 58 5 63 -7 1 -42 12 -78 24 -36 11 -82 23 -102 27 -21 3 -62 17 -92 31 -42
19 -71 25 -118 24 -35 0 -84 2 -111 6 -68 9 -94 -1 -110 -39 -8 -17 -21 -38
-30 -46 -11 -8 -17 -28 -17 -55 0 -45 13 -75 24 -57 4 6 20 11 36 11 26 0 33
-7 59 -58 39 -77 89 -242 95 -317 l6 -60 -15 64 c-18 80 -25 87 -25 28 0 -53
-17 -63 -27 -17 -11 57 -24 43 -22 -22 3 -60 1 -67 -29 -104 -38 -46 -40 -61
-9 -74 13 -5 16 -9 6 -9 -16 -1 -56 39 -102 98 -25 34 -25 36 -10 73 21 52 7
68 -58 68 -59 0 -93 -15 -108 -47 -16 -35 -38 -26 -88 35 -46 57 -53 85 -26
114 28 31 6 52 -62 58 -52 5 -58 3 -68 -17 -15 -34 -34 -35 -67 -2 -37 37 -47
73 -31 113 10 28 9 33 -11 50 -18 14 -33 17 -68 12 -58 -8 -80 -33 -80 -93 0
-43 1 -45 24 -39 38 9 75 -10 91 -47 21 -52 84 -301 89 -359 l6 -53 -13 62
c-8 35 -17 66 -20 70 -4 3 -4 -8 -1 -25 4 -17 3 -48 -1 -69 l-7 -38 -19 40
-18 40 0 -97 c-1 -53 -6 -119 -12 -146 l-12 -50 -71 -7 c-39 -4 -78 -11 -87
-16 -30 -16 -78 -289 -51 -289 6 0 13 4 16 9 3 5 17 11 31 13 22 5 25 2 25
-23 0 -16 -5 -29 -11 -29 -22 0 -4 -44 21 -50 71 -17 114 21 136 121 25 118
12 173 -20 87 -9 -24 -14 -32 -11 -18 3 14 8 46 12 73 7 54 16 59 38 17 26
-51 19 -115 -31 -257 -14 -37 -19 -42 -57 -49 -23 -4 -71 -8 -106 -8 -70 -2
-79 -8 -111 -82 -27 -62 -60 -186 -60 -225 1 -30 2 -32 14 -17 16 22 66 24 66
3 0 -8 12 -17 28 -21 66 -15 87 -24 42 -17 -69 10 -93 9 -97 -4 -8 -24 47 -46
125 -51 73 -4 78 -3 103 22 29 29 36 53 46 159 4 49 3 68 -5 63 -6 -3 -13 -20
-17 -37 -13 -58 -13 -23 0 61 l12 85 18 -40 c22 -51 16 -183 -13 -271 -12 -35
-22 -101 -26 -164 -7 -128 -31 -349 -41 -372 -10 -26 -110 -59 -195 -65 -67
-5 -112 1 -161 21 -12 5 -18 1 -22 -14 -3 -12 -10 -19 -16 -15 -15 9 -14 -8 2
-24 6 -8 0 -6 -15 3 -54 35 -148 166 -148 207 0 16 9 43 21 61 12 18 18 24 13
13 -12 -32 -10 -78 4 -83 8 -2 16 6 19 18 3 13 26 63 50 112 23 49 43 92 43
96 -1 4 -12 -6 -27 -23 -19 -22 -22 -23 -10 -5 9 14 33 57 54 97 24 47 40 68
45 60 9 -14 47 28 48 53 0 41 63 260 98 342 33 79 40 108 45 188 3 52 13 127
21 167 25 117 2 361 -50 525 -14 42 -28 79 -33 82 -4 3 0 -31 10 -76 29 -133
60 -487 38 -438 -6 14 -15 81 -19 150 -13 187 -35 280 -106 459 -27 68 -44
122 -40 135 19 75 19 79 1 93 -39 28 -106 8 -125 -38 -9 -21 -21 -30 -48 -35
-22 -4 -50 -21 -73 -45 -21 -22 -47 -39 -57 -39 -11 0 -25 -6 -31 -14 -12 -14
-33 -134 -46 -256 -8 -76 -20 -97 -42 -75 -22 23 -83 23 -119 0 -22 -14 -94
-155 -125 -244 -11 -30 -26 -65 -34 -77 -16 -24 -7 -38 30 -47 16 -4 15 -5 -6
-6 -16 -1 -35 9 -50 25 -24 25 -24 29 -24 207 1 187 12 292 46 432 11 44 21
90 23 103 2 12 16 34 32 48 27 26 27 27 8 41 -21 16 -110 11 -146 -8 -25 -13
-55 -80 -68 -150 -6 -29 -13 -55 -15 -58 -3 -3 -27 -8 -52 -11 -39 -4 -50 -10
-65 -36 -10 -16 -21 -55 -26 -85 l-7 -54 -67 3 c-78 5 -74 8 -134 -130 -20
-49 -41 -88 -45 -88 -5 0 -16 -16 -25 -36 -17 -35 -17 -37 1 -50 15 -11 16
-14 3 -14 -8 0 -22 8 -30 18 -28 30 -86 145 -102 201 -23 78 -20 230 4 301 11
30 18 44 15 30 -25 -128 -28 -163 -16 -230 7 -37 19 -77 27 -87 14 -16 15 -11
9 52 -12 144 31 302 120 434 47 72 190 231 207 231 6 0 -25 -37 -68 -82 -147
-154 -222 -297 -239 -458 -3 -30 -2 -68 3 -85 l9 -30 8 27 c3 14 15 28 26 31
10 3 23 16 28 29 8 18 10 12 10 -34 1 -33 -3 -58 -9 -58 -16 0 -12 -36 5 -50
27 -22 63 4 90 64 25 57 47 76 88 76 35 0 74 34 96 86 29 65 58 102 102 130
24 15 48 42 63 73 23 44 76 101 96 101 13 0 70 63 70 78 0 20 56 72 78 72 31
0 69 36 118 113 25 40 57 84 70 98 14 14 26 39 27 55 2 25 -2 29 -25 32 -35 4
-35 15 0 41 23 17 25 22 12 31 -36 25 -156 -9 -330 -93 -106 -51 -111 -55
-159 -116 l-33 -43 62 51 c80 64 330 191 376 191 19 0 34 -3 34 -6 0 -14 -22
-44 -33 -44 -22 0 -214 -97 -289 -145 -183 -119 -317 -239 -417 -375 -35 -47
-72 -94 -84 -104 -20 -20 -20 -20 -14 13 9 43 89 157 176 251 38 41 67 78 65
82 -5 7 89 88 102 88 5 0 -11 -19 -36 -42 l-45 -41 45 35 c25 20 45 40 45 44
0 5 10 24 23 41 15 21 21 40 17 53 -7 22 -20 26 -30 10 -10 -16 -25 -11 -25 8
0 11 9 27 20 37 11 10 20 27 20 38 0 17 -5 19 -42 13 -23 -4 -78 -26 -122 -49
-44 -23 -92 -43 -106 -45 -14 -2 -48 -18 -77 -37 -61 -41 -112 -127 -90 -154
10 -12 9 -12 -10 -1 -20 13 -53 79 -53 107 0 7 9 21 21 32 12 11 18 24 14 30
-7 13 -61 13 -90 1 -18 -8 -17 -9 8 -9 41 -1 30 -21 -34 -57 -30 -17 -85 -54
-123 -83 -72 -55 -93 -59 -89 -20 l3 24 -19 -25 c-22 -27 -19 -37 13 -50 l21
-9 -22 0 c-80 -3 -82 133 -4 275 23 41 22 36 -15 -64 -25 -65 -31 -117 -15
-126 15 -9 28 15 65 116 42 116 57 147 86 173 18 16 16 10 -9 -29 -17 -28 -31
-60 -31 -72 0 -23 1 -23 29 -6 37 21 52 9 22 -19 -48 -45 -4 -55 81 -19 57 24
125 26 172 4 33 -16 36 -16 78 9 24 13 52 34 62 46 14 15 31 21 63 21 32 0 69
13 141 49 53 26 114 54 135 60 20 7 37 16 37 20 0 16 -26 31 -54 32 l-31 1 28
10 c37 13 83 -6 102 -42 13 -26 13 -29 -8 -43 -18 -12 -20 -18 -11 -34 17 -27
73 -22 178 17 51 18 120 35 164 39 80 8 77 9 120 -43 16 -20 45 -20 88 0 40
19 42 45 4 55 -21 6 -18 7 16 8 42 1 64 -12 64 -40 0 -11 -12 -19 -36 -24 -51
-9 -87 -38 -142 -115 -144 -197 -253 -393 -273 -490 -7 -30 -23 -100 -35 -155
-26 -106 -30 -165 -14 -165 6 0 10 4 10 9 0 5 16 28 35 51 39 46 44 37 19 -36
-10 -30 -12 -50 -6 -56 13 -13 65 14 86 46 9 14 33 34 54 45 21 11 44 26 51
35 7 8 18 67 26 131 14 120 24 145 57 145 26 0 56 17 95 54 18 17 43 41 57 52
14 12 29 42 35 65 21 86 25 92 57 101 61 16 74 51 90 253 5 56 11 74 30 93 22
21 29 37 36 87 3 18 15 21 142 31 76 7 218 15 315 19 217 9 243 17 288 97 17
29 38 60 47 67 8 7 48 17 88 22 99 11 176 34 202 58 22 20 171 61 224 61 39 0
85 17 78 29 -3 5 -27 14 -53 21 -43 11 -45 13 -25 21 31 12 28 24 -15 45 -34
17 -63 19 -293 18 -278 -1 -299 -5 -505 -81 -84 -30 -307 -135 -301 -140 2 -2
44 16 92 40 99 49 281 116 407 148 65 17 121 22 272 25 128 3 185 1 175 -6 -8
-5 -51 -10 -95 -10 -213 -1 -578 -112 -880 -268 -60 -32 -113 -59 -118 -61 -5
-2 -6 7 -2 20 7 21 6 22 -8 11 -26 -22 -30 -50 -11 -69 18 -18 6 -30 -21 -19
-27 10 -17 54 20 91 34 33 64 48 49 23 -4 -7 -3 -8 5 -4 6 4 9 11 6 16 -3 4
10 18 29 29 39 25 58 28 30 5 -18 -14 -18 -15 3 -4 13 6 22 16 20 22 -3 14
212 125 324 167 139 52 153 60 178 101 13 21 34 43 47 49 16 7 28 25 36 56 11
42 16 46 65 65 30 11 58 20 62 20 12 0 32 26 35 45 1 8 11 22 22 30 19 14 19
14 -3 15 -20 0 -20 2 8 31 16 17 27 35 24 40 -11 17 94 -34 115 -56z m-1622
13 c-2 -13 -10 -23 -18 -23 -8 0 -16 10 -18 23 -3 17 2 22 18 22 16 0 21 -5
18 -22z m352 -70 c24 -39 25 -48 5 -48 -8 0 -22 11 -31 25 -14 22 -22 25 -48
20 l-31 -6 24 21 c33 29 58 25 81 -12z m1230 18 c0 -13 -29 -26 -59 -26 -11 0
-10 5 4 20 21 23 55 27 55 6z m-305 -71 c-14 -13 -25 -31 -25 -40 0 -8 -4 -15
-10 -15 -5 0 -10 11 -10 25 0 16 9 29 28 39 39 22 44 19 17 -9z m-1370 -76 c7
-7 -2 -9 -25 -8 -19 1 -43 -2 -52 -6 -11 -4 -18 -3 -18 3 0 29 69 37 95 11z
m405 -15 c0 -15 -25 -51 -67 -98 -11 -14 -18 -16 -21 -7 -6 19 8 62 18 56 6
-3 10 4 10 17 0 13 5 29 12 36 17 17 48 15 48 -4z m187 -6 c-3 -8 -6 -5 -6 6
-1 11 2 17 5 13 3 -3 4 -12 1 -19z m696 -24 c-9 -15 -19 -21 -21 -15 -4 13 16
41 29 41 5 0 2 -12 -8 -26z m305 -61 c-10 -2 -28 -2 -40 0 -13 2 -5 4 17 4 22
1 32 -1 23 -4z m-1448 -42 c0 -16 -40 -43 -55 -38 -20 8 -19 44 2 56 18 10 53
-2 53 -18z m1645 -102 c-33 -5 -72 -18 -87 -29 -28 -21 -40 -12 -14 9 22 19
66 29 116 29 43 0 42 -1 -15 -9z m-1612 -86 c10 -10 -13 -33 -34 -33 -21 0
-33 15 -24 30 7 11 48 14 58 3z m1405 0 c-16 -2 -40 -2 -55 0 -16 2 -3 4 27 4
30 0 43 -2 28 -4z m-113 -10 c-11 -2 -29 -6 -40 -8 -11 -2 -30 -14 -43 -25
-24 -22 -30 -14 -9 12 16 20 34 27 77 26 19 0 26 -2 15 -5z m-1413 -39 c15 -8
45 -14 66 -14 29 0 51 -9 88 -37 76 -56 104 -85 104 -107 0 -19 -1 -19 -13 -1
-8 10 -19 15 -24 12 -6 -4 -40 1 -75 11 -54 16 -100 19 -318 19 l-255 0 183
-7 c243 -9 261 -27 30 -29 -196 -2 -281 -12 -420 -46 -165 -42 -269 -97 -385
-207 -54 -51 -83 -70 -83 -52 0 11 23 49 44 74 14 16 15 20 4 11 -25 -19 -22
-2 4 26 25 27 47 31 27 6 -13 -16 -12 -17 3 -4 10 7 15 17 13 21 -5 9 55 60
70 60 4 0 1 -8 -6 -17 -13 -16 -12 -17 3 -4 10 7 15 17 12 22 -9 15 158 88
260 114 146 37 237 46 454 44 129 -1 207 2 214 9 19 19 4 46 -30 53 -45 9 -75
37 -59 54 13 15 45 11 89 -11z m1274 -76 c-11 -15 -16 -18 -16 -7 0 16 21 42
28 34 2 -2 -3 -14 -12 -27z m-1488 15 c-32 -2 -86 -2 -120 0 -35 2 -9 3 57 3
66 0 94 -1 63 -3z m122 -9 c0 -2 -15 -4 -32 -4 -23 0 -29 3 -19 9 12 8 51 4
51 -5z m-337 -1 c-13 -2 -35 -2 -50 0 -16 2 -5 4 22 4 28 0 40 -2 28 -4z
m-100 -10 c-7 -2 -19 -2 -25 0 -7 3 -2 5 12 5 14 0 19 -2 13 -5z m-103 -18
c-30 -7 -57 -12 -59 -10 -5 6 61 23 89 23 14 0 0 -6 -30 -13z m1174 -66 c-7
-45 -16 -84 -18 -87 -9 -9 -4 133 6 151 19 38 24 13 12 -64z m1006 57 c0 -6
-22 -34 -48 -62 -47 -51 -48 -51 -135 -64 -67 -10 -90 -11 -99 -2 -23 23 17
46 92 53 67 6 71 8 113 53 31 32 49 45 60 40 10 -3 17 -11 17 -18z m-422 -33
c-32 -2 -84 -2 -115 0 -32 2 -6 3 57 3 63 0 89 -1 58 -3z m-250 -10 c-21 -2
-57 -2 -80 0 -24 2 -7 4 37 4 44 0 63 -2 43 -4z m-674 -9 c22 -8 20 -34 -2
-34 -19 0 -42 18 -42 32 0 9 22 10 44 2z m519 -1 c-18 -2 -48 -2 -65 0 -18 2
-4 4 32 4 36 0 50 -2 33 -4z m-539 -158 c24 -36 3 -38 -39 -5 -21 17 -45 30
-54 31 -12 0 -11 2 4 8 27 11 70 -6 89 -34z m-131 18 c-7 -2 -19 -2 -25 0 -7
3 -2 5 12 5 14 0 19 -2 13 -5z m-54 -7 c-2 -2 -22 -6 -44 -9 -28 -5 -34 -4
-20 3 19 8 73 14 64 6z m482 -53 c-3 -52 -4 -56 -17 -38 -17 22 -18 49 -4 76
18 33 25 21 21 -38z m-1102 -32 c9 -6 -2 -10 -33 -12 -39 -4 -44 -2 -29 8 20
15 42 16 62 4z m-539 -31 c-12 -16 -24 -30 -26 -30 -3 0 4 14 16 30 12 17 24
30 26 30 3 0 -4 -13 -16 -30z m1470 -17 c0 -11 -41 -72 -126 -190 -86 -120
-171 -253 -185 -290 -10 -26 -11 -26 -21 -9 -18 33 74 198 243 433 31 44 51
62 67 62 12 1 22 -2 22 -6z m147 -73 c-6 -44 -13 -65 -15 -50 -4 25 16 135 23
128 2 -2 -1 -37 -8 -78z m-927 46 c0 -8 -17 -26 -37 -42 -21 -15 -50 -41 -66
-57 -23 -25 -33 -29 -61 -24 -36 6 -90 -20 -114 -55 -18 -25 -54 -58 -64 -58
-20 0 -5 55 24 89 47 54 78 72 114 65 25 -5 38 1 80 36 73 62 124 81 124 46z
m-354 0 c29 -22 12 -28 -29 -11 -20 8 -51 13 -69 10 -29 -4 -30 -4 -8 4 39 14
84 12 106 -3z m-151 -16 c-27 -12 -43 -12 -25 0 8 5 22 9 30 9 10 0 8 -3 -5
-9z m1006 -23 c-10 -9 -11 -8 -5 6 3 10 9 15 12 12 3 -3 0 -11 -7 -18z m-618
-114 c-7 -2 -19 -2 -25 0 -7 3 -2 5 12 5 14 0 19 -2 13 -5z m970 -13 c-23 -14
-36 -32 -47 -67 -9 -29 -15 -39 -15 -25 -1 33 24 88 46 101 33 19 49 11 16 -9z
m-542 -69 c-18 -10 -40 -29 -47 -42 -7 -13 -13 -18 -14 -11 0 20 56 72 77 72
12 -1 7 -7 -16 -19z m1793 -65 c9 -14 7 -20 -8 -30 -10 -6 -33 -23 -50 -38
-17 -16 -34 -28 -38 -28 -19 0 -17 24 3 58 39 63 70 76 93 38z m194 1 c3 -12
-9 -23 -43 -37 -57 -24 -52 -24 -65 0 -9 17 -6 23 22 40 39 24 81 23 86 -3z
m-1573 -67 c-10 -11 -23 -20 -29 -20 -6 1 0 10 13 20 30 26 39 26 16 0z m1859
-16 c20 -8 21 -30 1 -38 -23 -8 -45 4 -45 25 0 19 16 24 44 13z m-1970 -54
c-38 -17 -43 -23 -53 -70 -6 -28 -11 -72 -12 -98 -1 -26 -5 -58 -9 -72 -5 -14
-6 16 -3 70 7 146 29 191 93 189 21 0 19 -3 -16 -19z m314 -77 c4 -24 -39 -63
-109 -98 -26 -14 -50 -29 -54 -34 -3 -6 -26 -24 -51 -41 -36 -24 -49 -28 -60
-19 -23 19 -16 39 18 57 17 9 47 31 67 48 20 18 52 38 72 47 20 8 48 27 63 42
30 29 49 29 54 -2z m447 -2 c0 -28 -25 -47 -49 -38 -21 8 -21 43 2 56 27 16
47 8 47 -18z m-1111 10 c8 -12 -13 -35 -55 -60 -31 -18 -38 -19 -48 -7 -14 17
-1 49 27 65 21 13 69 14 76 2z m-678 -88 c-8 -15 -15 -25 -16 -21 0 12 23 58
27 54 3 -2 -2 -17 -11 -33z m424 34 c0 -2 -10 -12 -22 -23 l-23 -19 19 23 c18
21 26 27 26 19z m1583 -102 c-7 -19 -19 -19 -26 -1 -3 8 -1 17 6 19 18 6 27
-2 20 -18z m-1443 -69 c0 -20 -18 -32 -82 -53 -40 -14 -61 -16 -68 -9 -27 27
-2 53 61 65 67 13 89 13 89 -3z m340 -4 c0 -9 -53 -42 -67 -42 -10 1 49 50 60
50 4 0 7 -4 7 -8z m-644 -21 c-3 -4 -19 -11 -36 -14 -19 -4 -40 -21 -60 -48
-32 -45 -39 -45 -16 0 16 30 49 55 81 64 32 8 36 8 31 -2z m2044 -70 c0 -24
-5 -27 -53 -36 -32 -6 -37 -5 -37 12 0 28 20 43 57 43 26 0 33 -4 33 -19z
m-1890 -95 c0 -19 -22 -36 -47 -36 -28 0 -32 34 -7 48 21 12 54 4 54 -12z
m-117 -6 c4 -15 -4 -24 -35 -40 -41 -21 -58 -19 -58 7 0 46 82 75 93 33z
m2247 -31 c0 -26 -48 -49 -60 -29 -9 14 -2 41 13 51 17 12 47 -3 47 -22z m37
-1 c-3 -8 -6 -5 -6 6 -1 11 2 17 5 13 3 -3 4 -12 1 -19z m-1669 -45 c2 -13 -1
-23 -6 -23 -28 0 -80 -72 -116 -163 -37 -93 -63 -126 -87 -112 -12 8 -2 44 20
70 25 29 58 89 87 159 14 33 33 69 42 79 21 24 56 18 60 -10z m120 -15 c-4
-30 -48 -39 -48 -10 0 10 3 22 7 25 3 4 15 7 25 7 14 0 19 -6 16 -22z m869
-70 c-3 -7 -5 -2 -5 12 0 14 2 19 5 13 2 -7 2 -19 0 -25z m-1720 -24 c7 -19
-40 -70 -56 -60 -16 10 -13 37 6 58 20 22 42 23 50 2z m1573 -188 c0 -15 -14
-36 -24 -36 -6 0 -29 -9 -50 -21 -40 -21 -66 -20 -66 5 0 27 50 56 96 56 24 0
44 -2 44 -4z m64 -21 c3 -8 1 -15 -4 -15 -6 0 -10 7 -10 15 0 8 2 15 4 15 2 0
6 -7 10 -15z m-283 -51 c-6 -22 -15 -93 -21 -159 -6 -66 -15 -123 -19 -127
-11 -12 7 178 25 260 9 41 18 71 21 69 2 -3 0 -22 -6 -43z m220 -155 c-5 -13
-10 -19 -10 -12 -1 15 10 45 15 40 3 -2 0 -15 -5 -28z m-11 -193 c0 -25 -31
-40 -86 -43 -35 -1 -65 -9 -82 -22 -22 -15 -29 -16 -39 -6 -9 9 -7 20 7 43 18
29 24 31 82 35 35 2 75 4 91 5 17 1 27 -3 27 -12z m60 -29 c0 -5 -4 -5 -10 -2
-5 3 -10 14 -10 23 0 15 2 15 10 2 5 -8 10 -19 10 -23z m-347 -2 c-3 -9 -8
-14 -10 -11 -3 3 -2 9 2 15 9 16 15 13 8 -4z m-22 -52 c-12 -20 -14 -14 -5 12
4 9 9 14 11 11 3 -2 0 -13 -6 -23z m-27 -97 c-9 -37 -19 -65 -22 -62 -2 3 4
35 13 71 23 85 31 78 9 -9z m328 -78 c-6 -6 -7 0 -4 19 5 21 7 23 10 9 2 -10
0 -22 -6 -28z m-359 -55 c-6 -62 -23 -97 -23 -47 0 29 18 104 25 104 2 0 1
-26 -2 -57z m424 -565 c-2 -13 -4 -5 -4 17 -1 22 1 32 4 23 2 -10 2 -28 0 -40z
m-47 -28 c41 -26 -60 -87 -173 -103 -85 -12 -130 -5 -125 21 2 13 18 19 67 24
68 8 154 33 186 54 23 16 25 17 45 4z"/>
<path d="M1886 4517 c-24 -18 -17 -53 9 -49 47 9 66 2 98 -32 32 -34 84 -62
95 -52 8 9 -17 33 -69 66 -27 18 -49 35 -49 39 0 6 -53 41 -62 41 -2 0 -12 -6
-22 -13z"/>
<path d="M2092 3838 c5 -14 56 -33 65 -24 3 3 0 12 -7 21 -15 18 -64 21 -58 3z"/>
<path d="M3735 4520 c-13 -21 7 -28 68 -23 34 2 73 7 87 10 25 6 25 6 -5 13
-46 11 -143 11 -150 0z"/>
<path d="M3607 4314 c-14 -14 -6 -24 19 -24 16 0 24 5 22 13 -5 14 -31 21 -41
11z"/>
<path d="M3834 3796 c-17 -8 -34 -21 -37 -30 -4 -9 -17 -16 -29 -16 -13 -1
-45 -8 -73 -16 l-50 -14 71 5 c39 3 85 8 102 11 27 5 30 9 22 25 -8 15 -5 21
17 33 35 19 19 20 -23 2z"/>
<path d="M2880 3493 c-21 -8 -30 -24 -30 -50 0 -23 4 -25 85 -38 73 -12 224
-99 413 -238 46 -34 78 -63 73 -65 -14 -5 -49 15 -101 58 -56 46 -233 160
-283 183 -42 19 -87 23 -87 7 0 -5 32 -26 71 -46 86 -43 212 -123 322 -205 86
-64 80 -63 175 -43 23 4 47 0 83 -15 43 -19 55 -20 85 -11 48 16 93 9 203 -34
80 -32 96 -35 108 -23 19 18 6 46 -24 53 -14 4 -49 27 -77 52 -28 25 -43 43
-34 39 10 -3 27 -3 38 1 18 7 14 12 -32 47 -81 60 -245 142 -381 190 -67 24
-145 57 -172 73 -33 20 -79 36 -135 47 -93 17 -276 29 -300 18z m127 -24 c57
-21 45 -47 -24 -48 -59 -2 -85 25 -45 48 22 13 34 13 69 0z m594 -360 c56 -28
42 -36 -18 -9 -33 15 -58 19 -81 15 -23 -4 -32 -3 -27 4 11 18 83 12 126 -10z
m240 -31 c101 -52 87 -63 -17 -13 -55 27 -85 36 -110 33 -35 -4 -47 7 -16 15
40 11 65 5 143 -35z"/>
<path d="M3370 3421 c0 -8 99 -51 116 -51 4 0 47 -17 98 -37 168 -68 328 -162
422 -248 61 -56 72 -49 14 10 -116 118 -354 252 -565 316 -68 21 -85 23 -85
10z"/>
<path d="M2606 3354 c-16 -16 -20 -44 -10 -80 4 -14 18 -23 46 -30 35 -8 44
-16 70 -64 16 -30 50 -87 74 -127 48 -78 52 -88 29 -88 -8 0 -15 -4 -15 -8 0
-4 0 -13 0 -20 0 -24 44 -36 109 -30 33 3 61 9 61 14 0 21 -46 50 -74 46 -27
-4 -27 -3 -11 10 33 23 57 14 118 -47 63 -62 69 -78 23 -61 -30 12 -30 11 -15
-23 7 -13 23 -29 38 -35 26 -11 117 -9 128 3 13 12 -31 46 -61 47 -29 0 -30 1
-9 11 42 20 69 2 152 -107 45 -57 81 -107 81 -110 0 -3 -11 -3 -25 1 -32 8
-34 -17 -3 -46 25 -23 33 -24 91 -8 36 9 51 9 83 -4 50 -20 64 -14 64 27 0 33
-18 58 -40 53 -6 -2 -17 6 -23 17 -69 117 -161 237 -209 273 -10 7 -18 19 -18
27 0 8 -6 18 -14 22 -14 9 -40 53 -31 53 10 0 89 -41 110 -58 11 -8 -9 13 -44
48 -113 111 -297 216 -489 281 -96 32 -162 37 -186 13z m94 -34 c9 -17 7 -22
-16 -30 -34 -13 -64 -4 -64 20 0 34 63 42 80 10z m780 -650 c0 -4 -22 -8 -50
-8 -27 0 -50 2 -50 4 0 2 15 7 33 12 34 9 67 5 67 -8z"/>
<path d="M1035 3160 c-3 -6 1 -7 9 -4 18 7 21 14 7 14 -6 0 -13 -4 -16 -10z"/>
<path d="M955 3129 c-47 -18 -113 -75 -101 -86 3 -3 24 10 48 30 24 19 61 44
83 55 50 27 35 27 -30 1z"/>
<path d="M2530 3005 c-21 -25 -3 -80 38 -117 45 -41 123 -140 147 -186 15 -31
15 -35 0 -46 -21 -15 -10 -44 22 -52 16 -4 30 0 43 11 36 33 18 95 -22 74 -15
-8 -20 -5 -29 18 -5 15 -22 51 -35 80 -14 28 -31 83 -37 121 -7 41 -20 79 -31
91 -23 25 -78 28 -96 6z"/>
<path d="M1882 2678 c-13 -17 -48 -171 -61 -271 -13 -94 -14 -366 -2 -386 21
-33 31 4 31 115 0 149 15 283 45 412 14 57 25 112 25 123 0 21 -22 25 -38 7z"/>
<path d="M2780 2523 c-27 -10 -40 -36 -40 -82 0 -50 13 -81 24 -62 5 8 13 8
29 -1 12 -7 26 -11 31 -10 5 2 6 -7 2 -20 -3 -13 -6 -48 -6 -77 0 -62 -10 -59
-34 9 l-16 45 6 -90 c4 -49 10 -99 15 -110 6 -17 8 -16 14 12 5 22 17 37 36
47 l29 14 0 -39 c0 -22 -6 -48 -12 -60 -11 -17 -10 -22 6 -35 26 -19 29 -18
60 11 23 21 26 31 26 93 0 61 -29 204 -44 219 -3 3 -3 -45 1 -107 5 -85 3
-111 -5 -106 -7 4 -12 26 -12 49 -1 23 -9 78 -20 121 l-18 80 21 38 c22 38 22
39 3 53 -20 15 -67 19 -96 8z m50 -63 c0 -23 -4 -30 -20 -30 -23 0 -35 22 -26
45 3 8 15 15 26 15 16 0 20 -7 20 -30z"/>
<path d="M2574 1122 c-37 -44 -174 -305 -174 -331 0 -14 6 -17 24 -14 17 4 32
-3 52 -25 30 -30 79 -59 124 -73 24 -7 24 -7 -5 -8 -16 -1 -53 11 -82 26 -29
14 -56 23 -60 20 -11 -12 39 -56 94 -84 46 -22 62 -25 109 -19 71 8 175 55
197 89 15 23 22 67 43 259 15 129 -28 110 -46 -20 -6 -48 -15 -105 -20 -127
-8 -33 -8 -29 -4 25 11 144 27 233 46 249 39 33 23 41 -83 41 -55 0 -108 4
-117 9 -48 24 -66 21 -98 -17z m39 -16 c4 -10 -5 -18 -25 -25 -43 -15 -45 -14
-18 14 27 29 36 31 43 11z m213 2 c12 -20 -36 -49 -75 -46 -49 4 -55 33 -9 47
46 13 76 13 84 -1z"/>
<path d="M2140 3662 c0 -22 95 -79 105 -63 7 12 -65 71 -87 71 -10 0 -18 -4
-18 -8z"/>
<path d="M1553 3593 c9 -2 25 -2 35 0 9 3 1 5 -18 5 -19 0 -27 -2 -17 -5z"/>
<path d="M1488 3583 c6 -2 18 -2 25 0 6 3 1 5 -13 5 -14 0 -19 -2 -12 -5z"/>
<path d="M1438 3573 c7 -3 16 -2 19 1 4 3 -2 6 -13 5 -11 0 -14 -3 -6 -6z"/>
</g>
</svg>
